<svg xmlns="http://www.w3.org/2000/svg" viewBox="0 0 32 32">
  <rect width="32" height="32" rx="7" fill="#12100d"/>
  <path d="M9.6 21.9c-1.9 0-3.4-.5-4.5-1.5l1.6-2.5c.9.8 1.9 1.2 3 1.2.6 0 1-.1 1.3-.3.3-.2.5-.5.5-.9 0-.4-.2-.7-.6-.9-.4-.2-1-.5-1.9-.7-1.2-.4-2.1-.8-2.8-1.4-.7-.6-1-1.4-1-2.5 0-1.2.5-2.2 1.4-2.9.9-.7 2.1-1.1 3.5-1.1 1.7 0 3.1.4 4.1 1.3l-1.4 2.5c-.8-.6-1.7-.9-2.6-.9-1.1 0-1.6.3-1.6 1 0 .4.2.6.5.8.3.2.9.4 1.7.6 1.3.4 2.3.9 3 1.5.7.6 1.1 1.5 1.1 2.6 0 1.3-.5 2.3-1.5 3-1 .8-2.3 1.1-3.8 1.1z" fill="#ece5db"/>
  <circle cx="21.5" cy="19.6" r="2.2" fill="#d6ad7b"/>
</svg>
